<svg width="97" height="43" viewBox="0 0 97 43" fill="none" xmlns="http://www.w3.org/2000/svg">
<g clip-path="url(#clip0_2_30)">
<!-- Github @MehtabAsHellic <mehtabasmoon@gmail.com> -->
<path d="M58.092 21.0924C57.4496 21.0924 56.8688 20.9824 56.3496 20.7624C55.8392 20.5424 55.4344 20.2256 55.1352 19.812C54.836 19.3984 54.682 18.91 54.6732 18.3468H56.6532C56.6796 18.7252 56.8116 19.0244 57.0492 19.2444C57.2956 19.4644 57.63 19.5744 58.0524 19.5744C58.4836 19.5744 58.8224 19.4732 59.0688 19.2708C59.3152 19.0596 59.4384 18.7868 59.4384 18.4524C59.4384 18.1796 59.3548 17.9552 59.1876 17.7792C59.0204 17.6032 58.8092 17.4668 58.554 17.37C58.3076 17.2644 57.9644 17.15 57.5244 17.0268C56.926 16.8508 56.4376 16.6792 56.0592 16.512C55.6896 16.336 55.3684 16.0764 55.0956 15.7332C54.8316 15.3812 54.6996 14.9148 54.6996 14.334C54.6996 13.7884 54.836 13.3132 55.1088 12.9084C55.3816 12.5036 55.7644 12.1956 56.2572 11.9844C56.75 11.7644 57.3132 11.6544 57.9468 11.6544C58.8972 11.6544 59.6672 11.8876 60.2568 12.354C60.8552 12.8116 61.1852 13.454 61.2468 14.2812H59.214C59.1964 13.9644 59.06 13.7048 58.8048 13.5024C58.5584 13.2912 58.2284 13.1856 57.8148 13.1856C57.454 13.1856 57.1636 13.278 56.9436 13.4628C56.7324 13.6476 56.6268 13.916 56.6268 14.268C56.6268 14.5144 56.706 14.7212 56.8644 14.8884C57.0316 15.0468 57.234 15.1788 57.4716 15.2844C57.718 15.3812 58.0612 15.4956 58.5012 15.6276C59.0996 15.8036 59.588 15.9796 59.9664 16.1556C60.3448 16.3316 60.6704 16.5956 60.9432 16.9476C61.216 17.2996 61.3524 17.7616 61.3524 18.3336C61.3524 18.8264 61.2248 19.284 60.9696 19.7064C60.7144 20.1288 60.3404 20.4676 59.8476 20.7228C59.3548 20.9692 58.7696 21.0924 58.092 21.0924ZM69.2246 11.7864V13.278H66.7693V21H64.9213V13.278H62.4661V11.7864H69.2246ZM77.8989 11.7864L74.7837 17.7924V21H72.9357V17.7924L69.8073 11.7864H71.8929L73.8729 15.9972L75.8397 11.7864H77.8989ZM80.8127 19.5348H83.8487V21H78.9647V11.7864H80.8127V19.5348ZM86.8713 13.278V15.588H89.9733V17.0532H86.8713V19.4952H90.3693V21H85.0233V11.7732H90.3693V13.278H86.8713Z" fill="white"/>
<path d="M57.72 32.084C57.136 32.084 56.608 31.984 56.136 31.784C55.672 31.584 55.304 31.296 55.032 30.92C54.76 30.544 54.62 30.1 54.612 29.588H56.412C56.436 29.932 56.556 30.204 56.772 30.404C56.996 30.604 57.3 30.704 57.684 30.704C58.076 30.704 58.384 30.612 58.608 30.428C58.832 30.236 58.944 29.988 58.944 29.684C58.944 29.436 58.868 29.232 58.716 29.072C58.564 28.912 58.372 28.788 58.14 28.7C57.916 28.604 57.604 28.5 57.204 28.388C56.66 28.228 56.216 28.072 55.872 27.92C55.536 27.76 55.244 27.524 54.996 27.212C54.756 26.892 54.636 26.468 54.636 25.94C54.636 25.444 54.76 25.012 55.008 24.644C55.256 24.276 55.604 23.996 56.052 23.804C56.5 23.604 57.012 23.504 57.588 23.504C58.452 23.504 59.152 23.716 59.688 24.14C60.232 24.556 60.532 25.14 60.588 25.892H58.74C58.724 25.604 58.6 25.368 58.368 25.184C58.144 24.992 57.844 24.896 57.468 24.896C57.14 24.896 56.876 24.98 56.676 25.148C56.484 25.316 56.388 25.56 56.388 25.88C56.388 26.104 56.46 26.292 56.604 26.444C56.756 26.588 56.94 26.708 57.156 26.804C57.38 26.892 57.692 26.996 58.092 27.116C58.636 27.276 59.08 27.436 59.424 27.596C59.768 27.756 60.064 27.996 60.312 28.316C60.56 28.636 60.684 29.056 60.684 29.576C60.684 30.024 60.568 30.44 60.336 30.824C60.104 31.208 59.764 31.516 59.316 31.748C58.868 31.972 58.336 32.084 57.72 32.084ZM65.8845 25.256C66.3885 25.256 66.8365 25.368 67.2285 25.592C67.6205 25.808 67.9245 26.132 68.1405 26.564C68.3645 26.988 68.4765 27.5 68.4765 28.1V32H66.7965V28.328C66.7965 27.8 66.6645 27.396 66.4005 27.116C66.1365 26.828 65.7765 26.684 65.3205 26.684C64.8565 26.684 64.4885 26.828 64.2165 27.116C63.9525 27.396 63.8205 27.8 63.8205 28.328V32H62.1405V23.12H63.8205V26.18C64.0365 25.892 64.3245 25.668 64.6845 25.508C65.0445 25.34 65.4445 25.256 65.8845 25.256ZM69.6421 28.652C69.6421 27.98 69.7741 27.384 70.0381 26.864C70.3101 26.344 70.6741 25.944 71.1301 25.664C71.5941 25.384 72.1101 25.244 72.6781 25.244C73.1741 25.244 73.6061 25.344 73.9741 25.544C74.3501 25.744 74.6501 25.996 74.8741 26.3V25.352H76.5661V32H74.8741V31.028C74.6581 31.34 74.3581 31.6 73.9741 31.808C73.5981 32.008 73.1621 32.108 72.6661 32.108C72.1061 32.108 71.5941 31.964 71.1301 31.676C70.6741 31.388 70.3101 30.984 70.0381 30.464C69.7741 29.936 69.6421 29.332 69.6421 28.652ZM74.8741 28.676C74.8741 28.268 74.7941 27.92 74.6341 27.632C74.4741 27.336 74.2581 27.112 73.9861 26.96C73.7141 26.8 73.4221 26.72 73.1101 26.72C72.7981 26.72 72.5101 26.796 72.2461 26.948C71.9821 27.1 71.7661 27.324 71.5981 27.62C71.4381 27.908 71.3581 28.252 71.3581 28.652C71.3581 29.052 71.4381 29.404 71.5981 29.708C71.7661 30.004 71.9821 30.232 72.2461 30.392C72.5181 30.552 72.8061 30.632 73.1101 30.632C73.4221 30.632 73.7141 30.556 73.9861 30.404C74.2581 30.244 74.4741 30.02 74.6341 29.732C74.7941 29.436 74.8741 29.084 74.8741 28.676ZM79.8869 26.384C80.1029 26.032 80.3829 25.756 80.7269 25.556C81.0789 25.356 81.4789 25.256 81.9269 25.256V27.02H81.4829C80.9549 27.02 80.5549 27.144 80.2829 27.392C80.0189 27.64 79.8869 28.072 79.8869 28.688V32H78.2069V25.352H79.8869V26.384ZM89.2385 28.532C89.2385 28.772 89.2225 28.988 89.1905 29.18H84.3305C84.3705 29.66 84.5385 30.036 84.8345 30.308C85.1305 30.58 85.4945 30.716 85.9265 30.716C86.5505 30.716 86.9945 30.448 87.2585 29.912H89.0705C88.8785 30.552 88.5105 31.08 87.9665 31.496C87.4225 31.904 86.7545 32.108 85.9625 32.108C85.3225 32.108 84.7465 31.968 84.2345 31.688C83.7305 31.4 83.3345 30.996 83.0465 30.476C82.7665 29.956 82.6265 29.356 82.6265 28.676C82.6265 27.988 82.7665 27.384 83.0465 26.864C83.3265 26.344 83.7185 25.944 84.2225 25.664C84.7265 25.384 85.3065 25.244 85.9625 25.244C86.5945 25.244 87.1585 25.38 87.6545 25.652C88.1585 25.924 88.5465 26.312 88.8185 26.816C89.0985 27.312 89.2385 27.884 89.2385 28.532ZM87.4985 28.052C87.4905 27.62 87.3345 27.276 87.0305 27.02C86.7265 26.756 86.3545 26.624 85.9145 26.624C85.4985 26.624 85.1465 26.752 84.8585 27.008C84.5785 27.256 84.4065 27.604 84.3425 28.052H87.4985ZM91.2087 32.084C90.9047 32.084 90.6527 31.992 90.4527 31.808C90.2607 31.616 90.1647 31.38 90.1647 31.1C90.1647 30.82 90.2607 30.588 90.4527 30.404C90.6527 30.212 90.9047 30.116 91.2087 30.116C91.5047 30.116 91.7487 30.212 91.9407 30.404C92.1327 30.588 92.2287 30.82 92.2287 31.1C92.2287 31.38 92.1327 31.616 91.9407 31.808C91.7487 31.992 91.5047 32.084 91.2087 32.084Z" fill="white"/>
<path d="M16.7828 10.6061L14.1766 10.2337L15.5754 9.53433L19.6108 9.08595H22.9595L23.6948 9.313L19.8083 11.8278L17.2878 10.7477L17.0447 10.6435L16.7828 10.6061Z" stroke="url(#paint0_linear_2_30)" stroke-width="4"/>
<path d="M19 14.086C16.6667 12.2526 10.4 9.88595 4 17.086" stroke="url(#paint1_linear_2_30)"/>
<path d="M3.51924 16.9486C3.44338 17.2141 3.59712 17.4909 3.86264 17.5667C4.12816 17.6426 4.4049 17.4888 4.48076 17.2233L3.51924 16.9486ZM34 10.586L34.2236 10.1387L34.2236 10.1387L34 10.586ZM4.48076 17.2233C6.56365 9.93319 17.962 3.12524 33.7764 11.0332L34.2236 10.1387C18.0562 2.05429 5.83235 8.85271 3.51924 16.9486L4.48076 17.2233ZM33.7764 11.0332C34.1479 11.2189 34.4521 11.5901 34.8424 12.0972C35.2015 12.5638 35.638 13.1519 36.2428 13.5147L36.7572 12.6572C36.347 12.411 36.0258 11.9953 35.6348 11.4873C35.2749 11.0196 34.8367 10.4453 34.2236 10.1387L33.7764 11.0332Z" fill="url(#paint2_linear_2_30)"/>
<path d="M36.3001 28C38.6334 29.8333 44.9001 32.2 51.3001 25" stroke="url(#paint3_linear_2_30)"/>
<path d="M38.5172 31.4799L41.1235 31.8522L39.7247 32.5516L35.6893 33H32.3406L31.7514 32.8181L35.8971 30.2846L37.9057 31.2889L38.196 31.434L38.5172 31.4799Z" stroke="url(#paint4_linear_2_30)" stroke-width="4"/>
<path d="M51.7808 25.1374C51.8567 24.8718 51.703 24.5951 51.4374 24.5192C51.1719 24.4434 50.8952 24.5971 50.8193 24.8626L51.7808 25.1374ZM21.3001 31.5L21.0765 31.9472L21.0765 31.9472L21.3001 31.5ZM50.8193 24.8626C48.7364 32.1528 37.3381 38.9607 21.5237 31.0528L21.0765 31.9472C37.2439 40.0317 49.4677 33.2332 51.7808 25.1374L50.8193 24.8626ZM21.5237 31.0528C21.1522 30.867 20.8479 30.4958 20.4577 29.9888C20.0986 29.5222 19.662 28.9341 19.0573 28.5713L18.5428 29.4287C18.9531 29.6749 19.2743 30.0907 19.6652 30.5987C20.0251 31.0663 20.4634 31.6406 21.0765 31.9472L21.5237 31.0528Z" fill="url(#paint5_linear_2_30)"/>
<path d="M28.2261 34.414C26.1407 34.414 24.2701 34.046 22.6141 33.31C20.9581 32.5433 19.6394 31.516 18.6581 30.228C17.7074 28.94 17.1861 27.514 17.0941 25.95H23.5801C23.7027 26.9313 24.1781 27.744 25.0061 28.388C25.8647 29.032 26.9227 29.354 28.1801 29.354C29.4067 29.354 30.3574 29.1087 31.0321 28.618C31.7374 28.1273 32.0901 27.4987 32.0901 26.732C32.0901 25.904 31.6607 25.2907 30.8021 24.892C29.9741 24.4627 28.6401 24.0027 26.8001 23.512C24.8987 23.052 23.3347 22.5767 22.1081 22.086C20.9121 21.5953 19.8694 20.844 18.9801 19.832C18.1214 18.82 17.6921 17.4553 17.6921 15.738C17.6921 14.3273 18.0907 13.0393 18.8881 11.874C19.7161 10.7087 20.8814 9.78866 22.3841 9.114C23.9174 8.43933 25.7114 8.102 27.7661 8.102C30.8021 8.102 33.2247 8.86867 35.0341 10.402C36.8434 11.9047 37.8401 13.944 38.0241 16.52H31.8601C31.7681 15.508 31.3387 14.7107 30.5721 14.128C29.8361 13.5147 28.8394 13.208 27.5821 13.208C26.4167 13.208 25.5121 13.4227 24.8681 13.852C24.2547 14.2813 23.9481 14.8793 23.9481 15.646C23.9481 16.5047 24.3774 17.164 25.2361 17.624C26.0947 18.0533 27.4287 18.498 29.2381 18.958C31.0781 19.418 32.5961 19.8933 33.7921 20.384C34.9881 20.8747 36.0154 21.6413 36.8741 22.684C37.7634 23.696 38.2234 25.0453 38.2541 26.732C38.2541 28.204 37.8401 29.5227 37.0121 30.688C36.2147 31.8533 35.0494 32.7733 33.5161 33.448C32.0134 34.092 30.2501 34.414 28.2261 34.414Z" fill="white"/>
<mask id="path-10-inside-1_2_30" fill="white">
<path d="M51 25.5L46.5 28.5L38.5 31.5L44.5 33L50.5 27.5L51 25.5Z"/>
</mask>
<path d="M46.5 28.5L49.8357 37.3951L50.8597 37.0111L51.7697 36.4045L46.5 28.5ZM51 25.5L60.2164 27.8041L66.1761 3.965L45.7303 17.5955L51 25.5ZM50.5 27.5L56.9194 34.503L59.0239 32.5738L59.7164 29.8041L50.5 27.5ZM38.5 31.5L35.1643 22.6049L6.59859 33.317L36.1959 40.7164L38.5 31.5ZM44.5 33L42.1959 42.2164L47.1529 43.4556L50.9194 40.003L44.5 33ZM51.7697 36.4045L56.2697 33.4045L45.7303 17.5955L41.2303 20.5955L51.7697 36.4045ZM41.7836 23.1959L41.2836 25.1959L59.7164 29.8041L60.2164 27.8041L41.7836 23.1959ZM41.8357 40.3951L49.8357 37.3951L43.1643 19.6049L35.1643 22.6049L41.8357 40.3951ZM44.0806 20.497L38.0806 25.997L50.9194 40.003L56.9194 34.503L44.0806 20.497ZM46.8041 23.7836L40.8041 22.2836L36.1959 40.7164L42.1959 42.2164L46.8041 23.7836Z" fill="url(#paint6_linear_2_30)" mask="url(#path-10-inside-1_2_30)"/>
<mask id="path-12-inside-2_2_30" fill="white">
<path d="M12 10L8 11L5 14.5L4 17L7 15L12.5 11.5L12 10Z"/>
</mask>
<path d="M8 11L5.69591 1.78365L2.75792 2.51814L0.787062 4.81748L8 11ZM12 10L21.0125 6.99584L18.2305 -1.35001L9.69591 0.783646L12 10ZM12.5 11.5L17.6003 19.5148L23.8581 15.5326L21.5125 8.49584L12.5 11.5ZM7 15L1.89968 6.98522L1.81443 7.03947L1.73035 7.09552L7 15ZM4 17L-4.82053 13.4718L-16.1802 41.8711L9.26965 24.9045L4 17ZM5 14.5L-2.21294 8.31748L-3.23644 9.51157L-3.82053 10.9718L5 14.5ZM10.3041 20.2164L14.3041 19.2164L9.69591 0.783646L5.69591 1.78365L10.3041 20.2164ZM2.98751 13.0042L3.48751 14.5042L21.5125 8.49584L21.0125 6.99584L2.98751 13.0042ZM7.39968 3.48522L1.89968 6.98522L12.1003 23.0148L17.6003 19.5148L7.39968 3.48522ZM1.73035 7.09552L-1.26965 9.09552L9.26965 24.9045L12.2697 22.9045L1.73035 7.09552ZM12.8205 20.5282L13.8205 18.0282L-3.82053 10.9718L-4.82053 13.4718L12.8205 20.5282ZM12.2129 20.6825L15.2129 17.1825L0.787062 4.81748L-2.21294 8.31748L12.2129 20.6825Z" fill="url(#paint7_linear_2_30)" mask="url(#path-12-inside-2_2_30)"/>
</g>
<defs>
<linearGradient id="paint0_linear_2_30" x1="16.75" y1="15.086" x2="16.75" y2="7.08595" gradientUnits="userSpaceOnUse">
<stop stop-color="#0085FF"/>
<stop offset="1" stop-color="#0029FF"/>
</linearGradient>
<linearGradient id="paint1_linear_2_30" x1="-1.18469e-07" y1="21.086" x2="11.5" y2="12.1942" gradientUnits="userSpaceOnUse">
<stop stop-color="#0080FF"/>
<stop offset="1" stop-color="#005CFF"/>
</linearGradient>
<linearGradient id="paint2_linear_2_30" x1="20.25" y1="17.086" x2="20.25" y2="7" gradientUnits="userSpaceOnUse">
<stop stop-color="#0085FF"/>
<stop offset="1" stop-color="#0029FF"/>
</linearGradient>
<linearGradient id="paint3_linear_2_30" x1="55.3001" y1="21" x2="43.8001" y2="29.8917" gradientUnits="userSpaceOnUse">
<stop stop-color="#0080FF"/>
<stop offset="1" stop-color="#005CFF"/>
</linearGradient>
<linearGradient id="paint4_linear_2_30" x1="38.5501" y1="27" x2="38.5501" y2="35" gradientUnits="userSpaceOnUse">
<stop stop-color="#0085FF"/>
<stop offset="1" stop-color="#0029FF"/>
</linearGradient>
<linearGradient id="paint5_linear_2_30" x1="35.0501" y1="25" x2="35.0501" y2="35.0859" gradientUnits="userSpaceOnUse">
<stop stop-color="#0085FF"/>
<stop offset="1" stop-color="#0029FF"/>
</linearGradient>
<linearGradient id="paint6_linear_2_30" x1="47.5" y1="25.5" x2="42.5" y2="33.5" gradientUnits="userSpaceOnUse">
<stop stop-color="#005CFF"/>
<stop offset="0.745249" stop-color="#005CFF"/>
</linearGradient>
<linearGradient id="paint7_linear_2_30" x1="8.5" y1="16" x2="8.5" y2="10" gradientUnits="userSpaceOnUse">
<stop stop-color="#0080FF"/>
<stop offset="0.619484" stop-color="#005CFF"/>
</linearGradient>
<clipPath id="clip0_2_30">
<rect width="97" height="43" fill="white"/>
</clipPath>
</defs>
</svg>
