<svg width="59" height="37" viewBox="0 0 59 37" fill="none" xmlns="http://www.w3.org/2000/svg">
<g clip-path="url(#clip0_9_39)">
<!-- Github @MehtabAsHellic <mehtabasmoon@gmail.com> -->
<path d="M17.7828 7.60605L15.1766 7.23373L16.5754 6.53433L20.6108 6.08595H23.9595L24.6948 6.313L20.8083 8.82785L18.2878 7.74766L18.0447 7.64346L17.7828 7.60605Z" stroke="url(#paint0_linear_9_39)" stroke-width="4"/>
<path d="M20 11.086C17.6667 9.25262 11.4 6.88595 5 14.086" stroke="url(#paint1_linear_9_39)"/>
<path d="M4.51924 13.9486C4.44338 14.2141 4.59712 14.4909 4.86264 14.5667C5.12816 14.6426 5.4049 14.4888 5.48076 14.2233L4.51924 13.9486ZM35 7.58595L35.2236 7.13875L35.2236 7.13875L35 7.58595ZM5.48076 14.2233C7.56365 6.93319 18.962 0.125239 34.7764 8.03316L35.2236 7.13875C19.0562 -0.945707 6.83235 5.85271 4.51924 13.9486L5.48076 14.2233ZM34.7764 8.03316C35.1479 8.21893 35.4521 8.59012 35.8424 9.09715C36.2015 9.5638 36.638 10.1519 37.2428 10.5147L37.7572 9.65721C37.347 9.41103 37.0258 8.99528 36.6348 8.48726C36.2749 8.01962 35.8367 7.44531 35.2236 7.13875L34.7764 8.03316Z" fill="url(#paint2_linear_9_39)"/>
<path d="M37.3001 25C39.6334 26.8333 45.9001 29.2 52.3001 22" stroke="url(#paint3_linear_9_39)"/>
<path d="M39.5172 28.4799L42.1235 28.8522L40.7247 29.5516L36.6893 30H33.3406L32.7514 29.8181L36.8971 27.2846L38.9057 28.2889L39.196 28.434L39.5172 28.4799Z" stroke="url(#paint4_linear_9_39)" stroke-width="4"/>
<path d="M52.7808 22.1374C52.8567 21.8718 52.703 21.5951 52.4374 21.5192C52.1719 21.4434 51.8952 21.5971 51.8193 21.8626L52.7808 22.1374ZM22.3001 28.5L22.0765 28.9472L22.0765 28.9472L22.3001 28.5ZM51.8193 21.8626C49.7364 29.1528 38.3381 35.9607 22.5237 28.0528L22.0765 28.9472C38.2439 37.0317 50.4677 30.2332 52.7808 22.1374L51.8193 21.8626ZM22.5237 28.0528C22.1522 27.867 21.8479 27.4958 21.4577 26.9888C21.0986 26.5222 20.662 25.9341 20.0573 25.5713L19.5428 26.4287C19.9531 26.6749 20.2743 27.0907 20.6652 27.5987C21.0251 28.0663 21.4634 28.6406 22.0765 28.9472L22.5237 28.0528Z" fill="url(#paint5_linear_9_39)"/>
<path d="M29.2261 31.414C27.1407 31.414 25.2701 31.046 23.6141 30.31C21.9581 29.5433 20.6394 28.516 19.6581 27.228C18.7074 25.94 18.1861 24.514 18.0941 22.95H24.5801C24.7027 23.9313 25.1781 24.744 26.0061 25.388C26.8647 26.032 27.9227 26.354 29.1801 26.354C30.4067 26.354 31.3574 26.1087 32.0321 25.618C32.7374 25.1273 33.0901 24.4987 33.0901 23.732C33.0901 22.904 32.6607 22.2907 31.8021 21.892C30.9741 21.4627 29.6401 21.0027 27.8001 20.512C25.8987 20.052 24.3347 19.5767 23.1081 19.086C21.9121 18.5953 20.8694 17.844 19.9801 16.832C19.1214 15.82 18.6921 14.4553 18.6921 12.738C18.6921 11.3273 19.0907 10.0393 19.8881 8.874C20.7161 7.70866 21.8814 6.78866 23.3841 6.114C24.9174 5.43933 26.7114 5.102 28.7661 5.102C31.8021 5.102 34.2247 5.86867 36.0341 7.402C37.8434 8.90467 38.8401 10.944 39.0241 13.52H32.8601C32.7681 12.508 32.3387 11.7107 31.5721 11.128C30.8361 10.5147 29.8394 10.208 28.5821 10.208C27.4167 10.208 26.5121 10.4227 25.8681 10.852C25.2547 11.2813 24.9481 11.8793 24.9481 12.646C24.9481 13.5047 25.3774 14.164 26.2361 14.624C27.0947 15.0533 28.4287 15.498 30.2381 15.958C32.0781 16.418 33.5961 16.8933 34.7921 17.384C35.9881 17.8747 37.0154 18.6413 37.8741 19.684C38.7634 20.696 39.2234 22.0453 39.2541 23.732C39.2541 25.204 38.8401 26.5227 38.0121 27.688C37.2147 28.8533 36.0494 29.7733 34.5161 30.448C33.0134 31.092 31.2501 31.414 29.2261 31.414Z" fill="white"/>
<mask id="path-8-inside-1_9_39" fill="white">
<path d="M52 22.5L47.5 25.5L39.5 28.5L45.5 30L51.5 24.5L52 22.5Z"/>
</mask>
<path d="M47.5 25.5L50.8357 34.3951L51.8597 34.0111L52.7697 33.4045L47.5 25.5ZM52 22.5L61.2164 24.8041L67.1761 0.965004L46.7303 14.5955L52 22.5ZM51.5 24.5L57.9194 31.503L60.0239 29.5738L60.7164 26.8041L51.5 24.5ZM39.5 28.5L36.1643 19.6049L7.59859 30.317L37.1959 37.7164L39.5 28.5ZM45.5 30L43.1959 39.2164L48.1529 40.4556L51.9194 37.003L45.5 30ZM52.7697 33.4045L57.2697 30.4045L46.7303 14.5955L42.2303 17.5955L52.7697 33.4045ZM42.7836 20.1959L42.2836 22.1959L60.7164 26.8041L61.2164 24.8041L42.7836 20.1959ZM42.8357 37.3951L50.8357 34.3951L44.1643 16.6049L36.1643 19.6049L42.8357 37.3951ZM45.0806 17.497L39.0806 22.997L51.9194 37.003L57.9194 31.503L45.0806 17.497ZM47.8041 20.7836L41.8041 19.2836L37.1959 37.7164L43.1959 39.2164L47.8041 20.7836Z" fill="url(#paint6_linear_9_39)" mask="url(#path-8-inside-1_9_39)"/>
<mask id="path-10-inside-2_9_39" fill="white">
<path d="M13 7L9 8L6 11.5L5 14L8 12L13.5 8.5L13 7Z"/>
</mask>
<path d="M9 8L6.69591 -1.21635L3.75792 -0.481857L1.78706 1.81748L9 8ZM13 7L22.0125 3.99584L19.2305 -4.35001L10.6959 -2.21635L13 7ZM13.5 8.5L18.6003 16.5148L24.8581 12.5326L22.5125 5.49584L13.5 8.5ZM8 12L2.89968 3.98522L2.81443 4.03947L2.73035 4.09552L8 12ZM5 14L-3.82053 10.4718L-15.1802 38.8711L10.2697 21.9045L5 14ZM6 11.5L-1.21294 5.31748L-2.23644 6.51157L-2.82053 7.97179L6 11.5ZM11.3041 17.2164L15.3041 16.2164L10.6959 -2.21635L6.69591 -1.21635L11.3041 17.2164ZM3.98751 10.0042L4.48751 11.5042L22.5125 5.49584L22.0125 3.99584L3.98751 10.0042ZM8.39968 0.485216L2.89968 3.98522L13.1003 20.0148L18.6003 16.5148L8.39968 0.485216ZM2.73035 4.09552L-0.269652 6.09552L10.2697 21.9045L13.2697 19.9045L2.73035 4.09552ZM13.8205 17.5282L14.8205 15.0282L-2.82053 7.97179L-3.82053 10.4718L13.8205 17.5282ZM13.2129 17.6825L16.2129 14.1825L1.78706 1.81748L-1.21294 5.31748L13.2129 17.6825Z" fill="url(#paint7_linear_9_39)" mask="url(#path-10-inside-2_9_39)"/>
</g>
<defs>
<linearGradient id="paint0_linear_9_39" x1="17.75" y1="12.086" x2="17.75" y2="4.08595" gradientUnits="userSpaceOnUse">
<stop stop-color="#0085FF"/>
<stop offset="1" stop-color="#0029FF"/>
</linearGradient>
<linearGradient id="paint1_linear_9_39" x1="1" y1="18.086" x2="12.5" y2="9.19423" gradientUnits="userSpaceOnUse">
<stop stop-color="#0080FF"/>
<stop offset="1" stop-color="#005CFF"/>
</linearGradient>
<linearGradient id="paint2_linear_9_39" x1="21.25" y1="14.086" x2="21.25" y2="4" gradientUnits="userSpaceOnUse">
<stop stop-color="#0085FF"/>
<stop offset="1" stop-color="#0029FF"/>
</linearGradient>
<linearGradient id="paint3_linear_9_39" x1="56.3001" y1="18" x2="44.8001" y2="26.8917" gradientUnits="userSpaceOnUse">
<stop stop-color="#0080FF"/>
<stop offset="1" stop-color="#005CFF"/>
</linearGradient>
<linearGradient id="paint4_linear_9_39" x1="39.5501" y1="24" x2="39.5501" y2="32" gradientUnits="userSpaceOnUse">
<stop stop-color="#0085FF"/>
<stop offset="1" stop-color="#0029FF"/>
</linearGradient>
<linearGradient id="paint5_linear_9_39" x1="36.0501" y1="22" x2="36.0501" y2="32.0859" gradientUnits="userSpaceOnUse">
<stop stop-color="#0085FF"/>
<stop offset="1" stop-color="#0029FF"/>
</linearGradient>
<linearGradient id="paint6_linear_9_39" x1="48.5" y1="22.5" x2="43.5" y2="30.5" gradientUnits="userSpaceOnUse">
<stop stop-color="#005CFF"/>
<stop offset="0.745249" stop-color="#005CFF"/>
</linearGradient>
<linearGradient id="paint7_linear_9_39" x1="9.5" y1="13" x2="9.5" y2="7" gradientUnits="userSpaceOnUse">
<stop stop-color="#0080FF"/>
<stop offset="0.619484" stop-color="#005CFF"/>
</linearGradient>
<clipPath id="clip0_9_39">
<rect width="59" height="37" fill="white"/>
</clipPath>
</defs>
</svg>
