<svg xmlns="http://www.w3.org/2000/svg" xmlns:xlink="http://www.w3.org/1999/xlink" viewBox="0,0,256,256" width="100px" height="100px"><g fill="none" fill-rule="nonzero" stroke="none" stroke-width="1" stroke-linecap="butt" stroke-linejoin="miter" stroke-miterlimit="10" stroke-dasharray="" stroke-dashoffset="0" font-family="none" font-weight="none" font-size="none" text-anchor="none" style="mix-blend-mode: normal"><g transform="scale(2.56,2.56)"><path d="M30.807,17.307c-8.00813,0 -14.5,6.26801 -14.5,14c0,7.73199 6.49187,14 14.5,14c8.00813,0 14.5,-6.26801 14.5,-14c0,-7.73199 -6.49187,-14 -14.5,-14z" fill="#40c7f7"></path><path d="M30.807,46.307c-8.547,0 -15.5,-6.729 -15.5,-15c0,-8.271 6.953,-15 15.5,-15c8.547,0 15.5,6.729 15.5,15c0,8.271 -6.953,15 -15.5,15zM30.807,18.307c-7.444,0 -13.5,5.832 -13.5,13c0,7.168 6.056,13 13.5,13c7.444,0 13.5,-5.832 13.5,-13c0,-7.168 -6.056,-13 -13.5,-13z" fill="#1f212b"></path><path d="M40.404,31.268c0,5.469 -4.433,9.902 -9.902,9.902c-5.469,0 -9.902,-4.434 -9.902,-9.902c0,-5.468 4.433,-9.902 9.902,-9.902" fill="#40c7f7"></path><path d="M30.502,41.669c-5.736,0 -10.402,-4.666 -10.402,-10.402c0,-5.736 4.666,-10.402 10.402,-10.402c0.276,0 0.5,0.224 0.5,0.5c0,0.276 -0.224,0.5 -0.5,0.5c-5.184,0 -9.402,4.218 -9.402,9.402c0,5.184 4.218,9.402 9.402,9.402c5.184,0 9.401,-4.218 9.401,-9.402c0,-0.276 0.224,-0.5 0.5,-0.5c0.276,0 0.5,0.224 0.5,0.5c0.001,5.736 -4.665,10.402 -10.401,10.402z" fill="#1f212b"></path><path d="M34.356,22.144c1.621,0.686 3.021,1.79 4.065,3.178" fill="#40c7f7"></path><path d="M38.422,25.822c-0.152,0 -0.302,-0.069 -0.4,-0.199c-1,-1.33 -2.335,-2.373 -3.86,-3.019c-0.254,-0.107 -0.373,-0.401 -0.266,-0.655c0.107,-0.255 0.402,-0.373 0.655,-0.266c1.688,0.714 3.164,1.868 4.27,3.338c0.166,0.221 0.122,0.534 -0.099,0.7c-0.09,0.069 -0.196,0.101 -0.3,0.101z" fill="#1f212b"></path><path d="M32.807,55.807h-2v-10h4v8" fill="#b3e1e6"></path><path d="M32.807,56.307h-2c-0.276,0 -0.5,-0.224 -0.5,-0.5v-10c0,-0.276 0.224,-0.5 0.5,-0.5h4c0.276,0 0.5,0.224 0.5,0.5v8c0,0.276 -0.224,0.5 -0.5,0.5c-0.276,0 -0.5,-0.224 -0.5,-0.5v-7.5h-3v9h1.5c0.276,0 0.5,0.224 0.5,0.5c0,0.276 -0.224,0.5 -0.5,0.5z" fill="#1f212b"></path><path d="M50.754,36.931l7.459,4.307l-2.157,3.735l-11.717,-7.039" fill="#b3e1e6"></path><path d="M56.056,45.474c-0.09,0 -0.179,-0.024 -0.257,-0.071l-11.717,-7.039c-0.237,-0.142 -0.313,-0.45 -0.171,-0.686c0.142,-0.236 0.449,-0.313 0.686,-0.171l11.281,6.777l1.652,-2.862l-7.026,-4.057c-0.239,-0.138 -0.321,-0.444 -0.183,-0.683c0.138,-0.24 0.443,-0.322 0.683,-0.183l7.459,4.307c0.239,0.138 0.321,0.444 0.183,0.683l-2.157,3.736c-0.067,0.116 -0.178,0.201 -0.308,0.234c-0.041,0.009 -0.083,0.015 -0.125,0.015z" fill="#1f212b"></path><path d="M49.122,64.216l8.284,-4.783l-2.157,-3.735l-10.91,7.039" fill="#b3e1e6"></path><path d="M49.123,64.716c-0.173,0 -0.341,-0.089 -0.434,-0.25c-0.138,-0.239 -0.056,-0.545 0.183,-0.683l7.851,-4.533l-1.644,-2.847l-10.469,6.754c-0.233,0.15 -0.542,0.083 -0.691,-0.149c-0.15,-0.232 -0.083,-0.542 0.149,-0.691l10.911,-7.039c0.115,-0.074 0.253,-0.1 0.389,-0.066c0.133,0.032 0.247,0.117 0.315,0.236l2.157,3.735c0.066,0.115 0.084,0.251 0.05,0.379c-0.034,0.128 -0.118,0.237 -0.233,0.304l-8.284,4.783c-0.08,0.045 -0.166,0.067 -0.25,0.067z" fill="#1f212b"></path><path d="M30.807,55.307c-8.00813,0 -14.5,6.26801 -14.5,14c0,7.73199 6.49187,14 14.5,14c8.00813,0 14.5,-6.26801 14.5,-14c0,-7.73199 -6.49187,-14 -14.5,-14z" fill="#40c7f7"></path><path d="M30.807,84.307c-8.547,0 -15.5,-6.729 -15.5,-15c0,-8.271 6.953,-15 15.5,-15c8.547,0 15.5,6.729 15.5,15c0,8.271 -6.953,15 -15.5,15zM30.807,56.307c-7.444,0 -13.5,5.832 -13.5,13c0,7.168 6.056,13 13.5,13c7.444,0 13.5,-5.832 13.5,-13c0,-7.168 -6.056,-13 -13.5,-13z" fill="#1f212b"></path><path d="M40.404,69.01c0,5.469 -4.433,9.902 -9.902,9.902c-5.469,0 -9.902,-4.433 -9.902,-9.902c0,-5.469 4.433,-9.902 9.902,-9.902" fill="#40c7f7"></path><path d="M30.502,79.412c-5.736,0 -10.402,-4.666 -10.402,-10.402c0,-5.736 4.666,-10.402 10.402,-10.402c0.276,0 0.5,0.224 0.5,0.5c0,0.276 -0.224,0.5 -0.5,0.5c-5.184,0 -9.402,4.218 -9.402,9.402c0,5.184 4.218,9.402 9.402,9.402c5.184,0 9.401,-4.218 9.401,-9.402c0,-0.276 0.224,-0.5 0.5,-0.5c0.276,0 0.5,0.224 0.5,0.5c0.001,5.736 -4.665,10.402 -10.401,10.402z" fill="#1f212b"></path><path d="M34.356,59.887c1.621,0.686 3.021,1.79 4.065,3.178" fill="#40c7f7"></path><path d="M38.422,63.565c-0.152,0 -0.302,-0.069 -0.4,-0.199c-1,-1.33 -2.335,-2.373 -3.86,-3.019c-0.254,-0.107 -0.373,-0.401 -0.266,-0.655c0.107,-0.255 0.402,-0.373 0.655,-0.266c1.688,0.714 3.164,1.868 4.27,3.338c0.166,0.221 0.122,0.534 -0.099,0.7c-0.09,0.068 -0.196,0.101 -0.3,0.101z" fill="#1f212b"></path><path d="M69.807,36.307c-8.00813,0 -14.5,6.26801 -14.5,14c0,7.73199 6.49187,14 14.5,14c8.00813,0 14.5,-6.26801 14.5,-14c0,-7.73199 -6.49187,-14 -14.5,-14z" fill="#40c7f7"></path><path d="M69.807,65.307c-8.547,0 -15.5,-6.729 -15.5,-15c0,-8.271 6.953,-15 15.5,-15c8.547,0 15.5,6.729 15.5,15c0,8.271 -6.953,15 -15.5,15zM69.807,37.307c-7.444,0 -13.5,5.832 -13.5,13c0,7.168 6.056,13 13.5,13c7.444,0 13.5,-5.832 13.5,-13c0,-7.168 -6.056,-13 -13.5,-13z" fill="#1f212b"></path><path d="M79.764,50.678c0,5.469 -4.433,9.902 -9.902,9.902c-5.469,0 -9.902,-4.433 -9.902,-9.902c0,-5.469 4.433,-9.902 9.902,-9.902" fill="#40c7f7"></path><path d="M69.862,61.08c-5.736,0 -10.402,-4.666 -10.402,-10.402c0,-5.736 4.666,-10.402 10.402,-10.402c0.276,0 0.5,0.224 0.5,0.5c0,0.276 -0.224,0.5 -0.5,0.5c-5.184,0 -9.402,4.218 -9.402,9.402c0,5.184 4.218,9.402 9.402,9.402c5.184,0 9.402,-4.218 9.402,-9.402c0,-0.276 0.224,-0.5 0.5,-0.5c0.276,0 0.5,0.224 0.5,0.5c0,5.736 -4.666,10.402 -10.402,10.402z" fill="#1f212b"></path><path d="M73.717,41.555c1.621,0.686 3.021,1.79 4.065,3.178" fill="#40c7f7"></path><path d="M77.782,45.233c-0.152,0 -0.302,-0.069 -0.4,-0.2c-1,-1.329 -2.334,-2.373 -3.86,-3.018c-0.254,-0.107 -0.373,-0.401 -0.266,-0.655c0.107,-0.255 0.402,-0.373 0.655,-0.266c1.688,0.714 3.165,1.868 4.27,3.338c0.166,0.221 0.122,0.534 -0.099,0.7c-0.09,0.068 -0.195,0.101 -0.3,0.101z" fill="#1f212b"></path></g></g></svg>